<svg width="124" height="116" viewBox="0 0 124 116" fill="none" xmlns="http://www.w3.org/2000/svg">
<path d="M16.6333 73.1494C19.2721 69.2995 23.6278 67 28.2815 67H73.3552C78.2905 67 82.8687 69.5841 85.4348 73.8181L97.9161 94.4124C103.652 103.877 96.8688 116 85.8365 116H14.1657C2.7754 116 -3.94116 103.166 2.51754 93.7436L16.6333 73.1494Z" fill="#1C768F"/>
<path d="M16.6333 73.1494C19.2721 69.2995 23.6278 67 28.2815 67H73.3552C78.2905 67 82.8687 69.5841 85.4348 73.8181L97.9161 94.4124C103.652 103.877 96.8688 116 85.8365 116H14.1657C2.7754 116 -3.94116 103.166 2.51754 93.7436L16.6333 73.1494Z" fill="black" fill-opacity="0.2"/>
<path d="M79 29.5C79 45.7924 65.7924 59 49.5 59C33.2076 59 20 45.7924 20 29.5C20 13.2076 33.2076 0 49.5 0C65.7924 0 79 13.2076 79 29.5Z" fill="#1C768F"/>
<path d="M79 29.5C79 45.7924 65.7924 59 49.5 59C33.2076 59 20 45.7924 20 29.5C20 13.2076 33.2076 0 49.5 0C65.7924 0 79 13.2076 79 29.5Z" fill="black" fill-opacity="0.2"/>
<path d="M124 79C124 95.0163 110.792 108 94.5 108C78.2076 108 65 95.0163 65 79C65 62.9837 78.2076 50 94.5 50C110.792 50 124 62.9837 124 79Z" fill="white"/>
<path d="M118 79C118 92.2548 107.479 103 94.5 103C81.5213 103 71 92.2548 71 79C71 65.7452 81.5213 55 94.5 55C107.479 55 118 65.7452 118 79Z" fill="#B3261E"/>
<path d="M87.6329 68L83 72.6329L89.8671 79.5L83 86.3671L87.6329 91L94.5 84.1657L101.367 91L106 86.3671L99.1657 79.5L106 72.6329L101.367 68L94.5 74.8671L87.6329 68Z" fill="white"/>
</svg>
