<svg width="327" height="53" viewBox="0 0 327 53" fill="none" xmlns="http://www.w3.org/2000/svg">
<path d="M196.012 40.5292V34.4917L210.211 18.6153H196.18V12.3542H218.876V18.4476L204.565 34.2681H219.156V40.5292H196.012Z" fill="#1C768F"/>
<path d="M163.354 40.5294V12.3544H170.007L170.566 16.9384C171.423 15.3732 172.634 14.106 174.199 13.1371C175.802 12.1681 177.703 11.6836 179.901 11.6836C182.249 11.6836 184.225 12.1681 185.827 13.1371C187.43 14.106 188.641 15.5222 189.461 17.3857C190.318 19.2491 190.747 21.5411 190.747 24.2617V40.5294H183.256V24.9884C183.256 22.7523 182.771 21.038 181.802 19.8454C180.87 18.6528 179.417 18.0565 177.442 18.0565C176.175 18.0565 175.038 18.3546 174.032 18.9509C173.063 19.5472 172.299 20.4044 171.74 21.5225C171.181 22.6032 170.901 23.9263 170.901 25.4915V40.5294H163.354Z" fill="#1C768F"/>
<path d="M140.102 41.2002C137.754 41.2002 135.816 40.8275 134.288 40.0821C132.76 39.2995 131.624 38.2746 130.878 37.0075C130.17 35.7031 129.816 34.2683 129.816 32.703C129.816 30.9886 130.245 29.4793 131.102 28.1749C131.996 26.8705 133.319 25.8456 135.071 25.1002C136.86 24.3549 139.096 23.9822 141.779 23.9822H148.767C148.767 22.6032 148.581 21.4666 148.208 20.5721C147.835 19.6404 147.258 18.9509 146.475 18.5037C145.693 18.0565 144.649 17.8329 143.345 17.8329C141.928 17.8329 140.717 18.1497 139.711 18.7832C138.742 19.3795 138.146 20.3112 137.922 21.5784H130.599C130.785 19.5659 131.437 17.8329 132.555 16.3794C133.711 14.8887 135.22 13.7334 137.084 12.9135C138.984 12.0935 141.09 11.6836 143.401 11.6836C146.047 11.6836 148.339 12.1308 150.277 13.0253C152.214 13.9197 153.705 15.2055 154.749 16.8825C155.792 18.5596 156.314 20.628 156.314 23.0877V40.5294H149.941L149.103 36.2248C148.693 36.9702 148.208 37.6411 147.649 38.2373C147.09 38.8336 146.438 39.3554 145.693 39.8026C144.947 40.2498 144.109 40.5853 143.177 40.8089C142.245 41.0697 141.22 41.2002 140.102 41.2002ZM141.891 35.3863C142.86 35.3863 143.717 35.2186 144.463 34.8832C145.245 34.5105 145.916 34.026 146.475 33.4297C147.034 32.7962 147.463 32.0881 147.761 31.3054C148.096 30.4855 148.32 29.6097 148.432 28.678V28.6221H142.674C141.518 28.6221 140.568 28.7712 139.823 29.0693C139.115 29.3302 138.593 29.7215 138.257 30.2433C137.922 30.765 137.754 31.3613 137.754 32.0322C137.754 32.7775 137.922 33.3924 138.257 33.8769C138.593 34.3614 139.077 34.7341 139.711 34.995C140.344 35.2559 141.071 35.3863 141.891 35.3863Z" fill="#1C768F"/>
<path d="M96.0963 40.5294V12.3544H102.749L103.308 16.9384C104.165 15.3732 105.376 14.106 106.941 13.1371C108.544 12.1681 110.445 11.6836 112.643 11.6836C114.991 11.6836 116.967 12.1681 118.569 13.1371C120.172 14.106 121.383 15.5222 122.203 17.3857C123.06 19.2491 123.489 21.5411 123.489 24.2617V40.5294H115.998V24.9884C115.998 22.7523 115.513 21.038 114.544 19.8454C113.612 18.6528 112.159 18.0565 110.184 18.0565C108.917 18.0565 107.78 18.3546 106.774 18.9509C105.805 19.5472 105.041 20.4044 104.482 21.5225C103.923 22.6032 103.643 23.9263 103.643 25.4915V40.5294H96.0963Z" fill="#1C768F"/>
<path d="M80.9236 40.5294V12.3545H88.4705V40.5294H80.9236ZM84.725 8.4972C83.3833 8.4972 82.2653 8.10588 81.3708 7.32324C80.5137 6.50334 80.0851 5.47846 80.0851 4.2486C80.0851 3.01874 80.5137 2.01249 81.3708 1.22986C82.2653 0.409953 83.3833 0 84.725 0C86.1039 0 87.222 0.409953 88.0792 1.22986C88.9736 2.01249 89.4208 3.01874 89.4208 4.2486C89.4208 5.47846 88.9736 6.50334 88.0792 7.32324C87.222 8.10588 86.1039 8.4972 84.725 8.4972Z" fill="#1C768F"/>
<path d="M49.8605 40.5293V1.39746H75.3521V7.49085H57.4073V17.9446H71.7743V23.8703H57.4073V40.5293H49.8605Z" fill="#1C768F"/>
<path d="M296.105 52.8279V12.3544H302.813L303.652 16.2676C304.248 15.4477 304.956 14.7023 305.776 14.0315C306.596 13.3234 307.565 12.7644 308.683 12.3544C309.838 11.9072 311.18 11.6836 312.708 11.6836C315.354 11.6836 317.683 12.3358 319.696 13.6402C321.708 14.9446 323.292 16.7148 324.447 18.9509C325.64 21.1498 326.236 23.6654 326.236 26.4978C326.236 29.3302 325.64 31.8644 324.447 34.1005C323.255 36.2994 321.652 38.0324 319.64 39.2995C317.627 40.5666 315.335 41.2002 312.764 41.2002C310.677 41.2002 308.869 40.8275 307.341 40.0821C305.85 39.2995 304.621 38.2373 303.652 36.8957V52.8279H296.105ZM310.975 34.6037C312.466 34.6037 313.77 34.2683 314.888 33.5974C316.043 32.9266 316.938 31.9762 317.571 30.7464C318.205 29.5165 318.522 28.1003 318.522 26.4978C318.522 24.8953 318.205 23.4791 317.571 22.2492C316.938 20.9821 316.043 20.0131 314.888 19.3423C313.77 18.6342 312.466 18.2801 310.975 18.2801C309.521 18.2801 308.217 18.6342 307.062 19.3423C305.944 20.0131 305.049 20.9634 304.378 22.1933C303.745 23.4231 303.428 24.8393 303.428 26.4419C303.428 28.0444 303.745 29.4793 304.378 30.7464C305.049 31.9762 305.944 32.9266 307.062 33.5974C308.217 34.2683 309.521 34.6037 310.975 34.6037Z" fill="#3CAEA3"/>
<path d="M259.473 52.8279V12.3544H266.182L267.02 16.2676C267.616 15.4477 268.325 14.7023 269.144 14.0315C269.964 13.3234 270.933 12.7644 272.051 12.3544C273.207 11.9072 274.548 11.6836 276.076 11.6836C278.722 11.6836 281.052 12.3358 283.064 13.6402C285.077 14.9446 286.661 16.7148 287.816 18.9509C289.008 21.1498 289.605 23.6654 289.605 26.4978C289.605 29.3302 289.008 31.8644 287.816 34.1005C286.623 36.2994 285.021 38.0324 283.008 39.2995C280.996 40.5666 278.704 41.2002 276.132 41.2002C274.045 41.2002 272.238 40.8275 270.71 40.0821C269.219 39.2995 267.989 38.2373 267.02 36.8957V52.8279H259.473ZM274.343 34.6037C275.834 34.6037 277.139 34.2683 278.257 33.5974C279.412 32.9266 280.306 31.9762 280.94 30.7464C281.573 29.5165 281.89 28.1003 281.89 26.4978C281.89 24.8953 281.573 23.4791 280.94 22.2492C280.306 20.9821 279.412 20.0131 278.257 19.3423C277.139 18.6342 275.834 18.2801 274.343 18.2801C272.89 18.2801 271.586 18.6342 270.43 19.3423C269.312 20.0131 268.418 20.9634 267.747 22.1933C267.113 23.4231 266.797 24.8393 266.797 26.4419C266.797 28.0444 267.113 29.4793 267.747 30.7464C268.418 31.9762 269.312 32.9266 270.43 33.5974C271.586 34.2683 272.89 34.6037 274.343 34.6037Z" fill="#3CAEA3"/>
<path d="M236.221 41.2002C233.873 41.2002 231.935 40.8275 230.407 40.0821C228.879 39.2995 227.743 38.2746 226.997 37.0075C226.289 35.7031 225.935 34.2683 225.935 32.703C225.935 30.9886 226.364 29.4793 227.221 28.1749C228.115 26.8705 229.438 25.8456 231.19 25.1002C232.979 24.3549 235.215 23.9822 237.898 23.9822H244.886C244.886 22.6032 244.7 21.4666 244.327 20.5721C243.954 19.6404 243.377 18.9509 242.594 18.5037C241.812 18.0565 240.768 17.8329 239.464 17.8329C238.047 17.8329 236.836 18.1497 235.83 18.7832C234.861 19.3795 234.265 20.3112 234.041 21.5784H226.718C226.904 19.5659 227.556 17.8329 228.674 16.3794C229.83 14.8887 231.339 13.7334 233.203 12.9135C235.103 12.0935 237.209 11.6836 239.52 11.6836C242.166 11.6836 244.458 12.1308 246.396 13.0253C248.334 13.9197 249.824 15.2055 250.868 16.8825C251.911 18.5596 252.433 20.628 252.433 23.0877V40.5294H246.06L245.222 36.2248C244.812 36.9702 244.327 37.6411 243.768 38.2373C243.209 38.8336 242.557 39.3554 241.812 39.8026C241.066 40.2498 240.228 40.5853 239.296 40.8089C238.364 41.0697 237.339 41.2002 236.221 41.2002ZM238.01 35.3863C238.979 35.3863 239.836 35.2186 240.582 34.8832C241.364 34.5105 242.035 34.026 242.594 33.4297C243.153 32.7962 243.582 32.0881 243.88 31.3054C244.215 30.4855 244.439 29.6097 244.551 28.678V28.6221H238.793C237.637 28.6221 236.687 28.7712 235.942 29.0693C235.234 29.3302 234.712 29.7215 234.376 30.2433C234.041 30.765 233.873 31.3613 233.873 32.0322C233.873 32.7775 234.041 33.3924 234.376 33.8769C234.712 34.3614 235.196 34.7341 235.83 34.995C236.464 35.2559 237.19 35.3863 238.01 35.3863Z" fill="#3CAEA3"/>
<path d="M31.4452 1.51392H42.5093V40.5293H31.4452V1.51392Z" fill="#1C768F"/>
<path d="M15.7227 16.072H26.7867V40.5294H15.7227V16.072Z" fill="#1C768F"/>
<path d="M0 28.8831H11.0641V40.5294H0V28.8831Z" fill="#1C768F"/>
</svg>
